<?xml version="1.0" standalone="no"?>
<!DOCTYPE svg PUBLIC "-//W3C//DTD SVG 20010904//EN"
 "http://www.w3.org/TR/2001/REC-SVG-20010904/DTD/svg10.dtd">
<svg version="1.0" xmlns="http://www.w3.org/2000/svg"
 width="728.000000pt" height="278.000000pt" viewBox="0 0 728.000000 278.000000"
 preserveAspectRatio="xMidYMid meet">

<g transform="translate(0.000000,278.000000) scale(0.100000,-0.100000)"
fill="#000000" stroke="none">
<path d="M0 1390 l0 -1390 3640 0 3640 0 0 1390 0 1390 -3640 0 -3640 0 0
-1390z m3791 879 c37 -8 64 -22 95 -51 24 -22 44 -46 44 -53 0 -11 -92 -75
-109 -75 -5 0 -14 7 -21 14 -17 21 -77 39 -105 32 -14 -4 -32 -17 -41 -31 -15
-23 -15 -27 -1 -48 8 -13 61 -47 116 -77 165 -86 213 -163 180 -285 -16 -57
-91 -127 -155 -145 -67 -20 -150 -18 -206 3 -48 19 -138 104 -138 131 0 13
119 93 124 84 2 -2 12 -17 25 -35 49 -72 181 -60 181 17 0 35 -28 60 -120 105
-139 69 -180 118 -180 215 0 149 137 236 311 199z m-1228 -26 c8 -16 42 -116
77 -223 34 -107 66 -199 70 -203 4 -5 41 92 81 215 41 122 79 226 84 230 12 9
169 11 177 2 6 -5 -30 -113 -147 -434 -31 -85 -66 -183 -77 -217 l-20 -63 -93
0 -93 0 -21 58 c-120 328 -230 646 -225 653 3 5 43 9 89 9 82 0 85 -1 98 -27z
m765 -335 l2 -358 -85 0 -85 0 0 353 c0 195 3 357 7 361 4 4 41 5 83 4 l75 -3
3 -357z m920 0 l2 -358 -85 0 -85 0 0 353 c0 195 3 357 7 361 4 4 41 5 83 4
l75 -3 3 -357z m660 280 l3 -78 -96 0 -95 0 0 -280 0 -281 -87 3 -88 3 -3 278
-2 277 -95 0 -95 0 0 73 c0 41 3 77 7 80 4 4 128 6 277 5 l271 -3 3 -77z
m-2524 -938 c122 -20 231 -100 283 -209 24 -49 27 -68 27 -156 1 -82 -3 -109
-21 -147 -75 -163 -234 -247 -419 -221 -88 13 -150 43 -210 102 -148 146 -145
398 6 534 58 52 105 77 180 93 70 16 82 16 154 4z m2420 -5 c248 -53 370 -333
239 -552 -61 -102 -146 -159 -267 -176 -186 -26 -343 56 -419 220 -18 39 -22
66 -22 148 0 89 3 106 27 155 52 106 163 191 275 210 72 12 91 11 167 -5z
m-3216 -287 l2 -278 136 0 135 0 -3 -77 -3 -78 -220 0 -220 0 -3 358 -2 358
87 -3 88 -3 3 -277z m1504 135 c57 -82 127 -179 154 -218 l49 -70 3 218 2 217
85 0 85 0 0 -360 0 -360 -88 0 -88 0 -44 63 c-135 193 -254 356 -257 353 -3
-2 -4 -91 -4 -198 1 -106 -3 -199 -7 -206 -6 -9 -31 -12 -88 -10 l-79 3 -3
358 -2 357 88 0 89 0 105 -147z m885 134 c73 -19 155 -72 197 -127 92 -120 85
-340 -14 -453 -82 -93 -215 -131 -440 -125 l-115 3 -3 345 c-1 190 0 351 3
357 6 18 302 18 372 0z m1541 -177 c73 -102 142 -198 153 -215 l19 -30 0 218
0 217 90 0 90 0 -2 -357 -3 -358 -87 -3 -86 -3 -149 210 c-81 116 -151 210
-155 211 -5 0 -8 -94 -8 -210 l0 -210 -84 0 c-69 0 -85 3 -90 17 -9 21 -6 689
2 698 3 3 44 4 91 3 l86 -3 133 -185z"/>
<path d="M2254 1094 c-34 -8 -103 -72 -125 -117 -30 -58 -24 -156 14 -214 55
-86 174 -120 262 -75 79 40 115 101 115 195 0 121 -74 206 -186 212 -33 2 -69
1 -80 -1z"/>
<path d="M4645 1089 c-43 -12 -99 -62 -120 -105 -22 -48 -22 -150 0 -198 19
-40 74 -92 112 -107 13 -5 51 -9 83 -9 104 0 183 75 196 186 9 76 -10 132 -65
185 -60 57 -124 72 -206 48z"/>
<path d="M3780 885 l0 -215 58 0 c64 0 131 26 174 67 37 35 62 113 54 169 -16
122 -108 193 -248 194 l-38 0 0 -215z"/>
</g>
</svg>
